<mxfile host="app.diagrams.net" modified="2024-03-21T18:40:55.825Z" agent="Mozilla/5.0 (Windows NT 10.0; Win64; x64) AppleWebKit/537.36 (KHTML, like Gecko) Chrome/121.0.0.0 Safari/537.36 OPR/107.0.0.0 (Edition Yx GX 03)" etag="dTmBIG8MxwXgFUhZM-D8" version="24.0.7" type="device">
  <diagram name="Strona-1" id="Iq1txkXJfPX7Zm2s_XGw">
    <mxGraphModel dx="1458" dy="896" grid="1" gridSize="10" guides="1" tooltips="1" connect="1" arrows="1" fold="1" page="1" pageScale="1" pageWidth="827" pageHeight="1169" math="0" shadow="0">
      <root>
        <mxCell id="0" />
        <mxCell id="1" parent="0" />
        <mxCell id="YsjO_XKRF-M-CvrAFCbD-1" style="edgeStyle=orthogonalEdgeStyle;rounded=0;orthogonalLoop=1;jettySize=auto;html=1;exitX=1;exitY=0.5;exitDx=0;exitDy=0;entryX=0;entryY=0.5;entryDx=0;entryDy=0;" parent="1" source="YsjO_XKRF-M-CvrAFCbD-2" target="YsjO_XKRF-M-CvrAFCbD-8" edge="1">
          <mxGeometry relative="1" as="geometry" />
        </mxCell>
        <mxCell id="YsjO_XKRF-M-CvrAFCbD-2" value="Отправка жалобы" style="rounded=1;whiteSpace=wrap;html=1;arcSize=40;fontColor=#000000;fillColor=#70ff66;strokeColor=#FF0000;" parent="1" vertex="1">
          <mxGeometry x="120" y="160" width="120" height="40" as="geometry" />
        </mxCell>
        <mxCell id="YsjO_XKRF-M-CvrAFCbD-3" value="зритель" style="text;html=1;align=center;verticalAlign=middle;whiteSpace=wrap;rounded=0;" parent="1" vertex="1">
          <mxGeometry x="150" y="50" width="60" height="30" as="geometry" />
        </mxCell>
        <mxCell id="YsjO_XKRF-M-CvrAFCbD-4" value="стример" style="text;html=1;align=center;verticalAlign=middle;whiteSpace=wrap;rounded=0;" parent="1" vertex="1">
          <mxGeometry x="324" y="50" width="60" height="30" as="geometry" />
        </mxCell>
        <mxCell id="YsjO_XKRF-M-CvrAFCbD-5" value="модератор&amp;nbsp;" style="text;html=1;align=center;verticalAlign=middle;whiteSpace=wrap;rounded=0;" parent="1" vertex="1">
          <mxGeometry x="510" y="50" width="60" height="30" as="geometry" />
        </mxCell>
        <mxCell id="YsjO_XKRF-M-CvrAFCbD-6" style="edgeStyle=orthogonalEdgeStyle;rounded=0;orthogonalLoop=1;jettySize=auto;html=1;exitX=0.5;exitY=1;exitDx=0;exitDy=0;entryX=0.5;entryY=0;entryDx=0;entryDy=0;" parent="1" source="YsjO_XKRF-M-CvrAFCbD-8" target="YsjO_XKRF-M-CvrAFCbD-13" edge="1">
          <mxGeometry relative="1" as="geometry">
            <mxPoint x="540" y="240" as="targetPoint" />
          </mxGeometry>
        </mxCell>
        <mxCell id="YsjO_XKRF-M-CvrAFCbD-7" value="[&lt;span style=&quot;font-size: 12px; text-wrap: wrap; background-color: rgb(251, 251, 251);&quot;&gt;правила нарушены&lt;/span&gt;]" style="edgeLabel;html=1;align=center;verticalAlign=middle;resizable=0;points=[];" parent="YsjO_XKRF-M-CvrAFCbD-6" vertex="1" connectable="0">
          <mxGeometry x="-0.1935" y="1" relative="1" as="geometry">
            <mxPoint as="offset" />
          </mxGeometry>
        </mxCell>
        <mxCell id="YsjO_XKRF-M-CvrAFCbD-8" value="Проверка нарушения правил" style="rounded=1;whiteSpace=wrap;html=1;arcSize=40;fontColor=#000000;fillColor=#70ff66;strokeColor=#FF0000;" parent="1" vertex="1">
          <mxGeometry x="480" y="160" width="120" height="40" as="geometry" />
        </mxCell>
        <mxCell id="YsjO_XKRF-M-CvrAFCbD-9" style="edgeStyle=orthogonalEdgeStyle;rounded=0;orthogonalLoop=1;jettySize=auto;html=1;exitX=0.5;exitY=1;exitDx=0;exitDy=0;" parent="1" source="YsjO_XKRF-M-CvrAFCbD-13" edge="1">
          <mxGeometry relative="1" as="geometry">
            <mxPoint x="540" y="310" as="targetPoint" />
          </mxGeometry>
        </mxCell>
        <mxCell id="YsjO_XKRF-M-CvrAFCbD-10" value="[Да]" style="edgeLabel;html=1;align=center;verticalAlign=middle;resizable=0;points=[];" parent="YsjO_XKRF-M-CvrAFCbD-9" vertex="1" connectable="0">
          <mxGeometry x="-0.1524" y="2" relative="1" as="geometry">
            <mxPoint x="-2" as="offset" />
          </mxGeometry>
        </mxCell>
        <mxCell id="YsjO_XKRF-M-CvrAFCbD-11" style="edgeStyle=orthogonalEdgeStyle;rounded=0;orthogonalLoop=1;jettySize=auto;html=1;exitX=1;exitY=0.5;exitDx=0;exitDy=0;entryX=1;entryY=0.5;entryDx=0;entryDy=0;" parent="1" source="YsjO_XKRF-M-CvrAFCbD-13" target="YsjO_XKRF-M-CvrAFCbD-18" edge="1">
          <mxGeometry relative="1" as="geometry">
            <mxPoint x="680" y="800" as="targetPoint" />
            <Array as="points">
              <mxPoint x="690" y="260" />
              <mxPoint x="690" y="935" />
            </Array>
          </mxGeometry>
        </mxCell>
        <mxCell id="YsjO_XKRF-M-CvrAFCbD-12" value="[Нет]" style="edgeLabel;html=1;align=center;verticalAlign=middle;resizable=0;points=[];" parent="YsjO_XKRF-M-CvrAFCbD-11" vertex="1" connectable="0">
          <mxGeometry x="-0.8099" relative="1" as="geometry">
            <mxPoint as="offset" />
          </mxGeometry>
        </mxCell>
        <mxCell id="YsjO_XKRF-M-CvrAFCbD-13" value="" style="shape=rhombus;perimeter=rhombusPerimeter;whiteSpace=wrap;html=1;align=center;" parent="1" vertex="1">
          <mxGeometry x="525" y="250" width="30" height="20" as="geometry" />
        </mxCell>
        <mxCell id="YsjO_XKRF-M-CvrAFCbD-14" style="edgeStyle=orthogonalEdgeStyle;rounded=0;orthogonalLoop=1;jettySize=auto;html=1;exitX=0.5;exitY=1;exitDx=0;exitDy=0;" parent="1" source="YsjO_XKRF-M-CvrAFCbD-15" target="YsjO_XKRF-M-CvrAFCbD-17" edge="1">
          <mxGeometry relative="1" as="geometry" />
        </mxCell>
        <mxCell id="YsjO_XKRF-M-CvrAFCbD-15" value="Заблокировать стрим" style="rounded=1;whiteSpace=wrap;html=1;arcSize=40;fontColor=#000000;fillColor=#70ff66;strokeColor=#FF0000;" parent="1" vertex="1">
          <mxGeometry x="480" y="310" width="120" height="40" as="geometry" />
        </mxCell>
        <mxCell id="YsjO_XKRF-M-CvrAFCbD-16" style="edgeStyle=orthogonalEdgeStyle;rounded=0;orthogonalLoop=1;jettySize=auto;html=1;exitX=0;exitY=0.5;exitDx=0;exitDy=0;entryX=1;entryY=0.5;entryDx=0;entryDy=0;" parent="1" source="YsjO_XKRF-M-CvrAFCbD-17" target="YsjO_XKRF-M-CvrAFCbD-21" edge="1">
          <mxGeometry relative="1" as="geometry" />
        </mxCell>
        <mxCell id="YsjO_XKRF-M-CvrAFCbD-17" value="Послать предупреждение пользователю" style="rounded=1;whiteSpace=wrap;html=1;arcSize=40;fontColor=#000000;fillColor=#70ff66;strokeColor=#FF0000;" parent="1" vertex="1">
          <mxGeometry x="480" y="400" width="120" height="40" as="geometry" />
        </mxCell>
        <mxCell id="YsjO_XKRF-M-CvrAFCbD-18" value="" style="ellipse;html=1;shape=endState;fillColor=#000000;strokeColor=#0000FF;" parent="1" vertex="1">
          <mxGeometry x="525" y="920" width="30" height="30" as="geometry" />
        </mxCell>
        <mxCell id="YsjO_XKRF-M-CvrAFCbD-19" style="edgeStyle=orthogonalEdgeStyle;rounded=0;orthogonalLoop=1;jettySize=auto;html=1;exitX=0.5;exitY=1;exitDx=0;exitDy=0;entryX=0.5;entryY=0;entryDx=0;entryDy=0;" parent="1" source="YsjO_XKRF-M-CvrAFCbD-21" target="YsjO_XKRF-M-CvrAFCbD-26" edge="1">
          <mxGeometry relative="1" as="geometry" />
        </mxCell>
        <mxCell id="YsjO_XKRF-M-CvrAFCbD-20" value="[Исправился?]" style="edgeLabel;html=1;align=center;verticalAlign=middle;resizable=0;points=[];" parent="YsjO_XKRF-M-CvrAFCbD-19" vertex="1" connectable="0">
          <mxGeometry x="-0.35" relative="1" as="geometry">
            <mxPoint as="offset" />
          </mxGeometry>
        </mxCell>
        <mxCell id="YsjO_XKRF-M-CvrAFCbD-21" value="Исправиться(подчиниться)" style="rounded=1;whiteSpace=wrap;html=1;arcSize=40;fontColor=#000000;fillColor=#70ff66;strokeColor=#FF0000;" parent="1" vertex="1">
          <mxGeometry x="294" y="400" width="120" height="40" as="geometry" />
        </mxCell>
        <mxCell id="YsjO_XKRF-M-CvrAFCbD-24" style="edgeStyle=orthogonalEdgeStyle;rounded=0;orthogonalLoop=1;jettySize=auto;html=1;exitX=1;exitY=0.5;exitDx=0;exitDy=0;entryX=0;entryY=0.5;entryDx=0;entryDy=0;" parent="1" source="YsjO_XKRF-M-CvrAFCbD-26" target="YsjO_XKRF-M-CvrAFCbD-31" edge="1">
          <mxGeometry relative="1" as="geometry">
            <mxPoint x="530" y="489.66666666666674" as="targetPoint" />
          </mxGeometry>
        </mxCell>
        <mxCell id="YsjO_XKRF-M-CvrAFCbD-25" value="[Да]" style="edgeLabel;html=1;align=center;verticalAlign=middle;resizable=0;points=[];" parent="YsjO_XKRF-M-CvrAFCbD-24" vertex="1" connectable="0">
          <mxGeometry x="-0.3154" y="-1" relative="1" as="geometry">
            <mxPoint x="13" y="-1" as="offset" />
          </mxGeometry>
        </mxCell>
        <mxCell id="lzyuPbc2ECaVbri_mAEy-5" style="edgeStyle=orthogonalEdgeStyle;rounded=0;orthogonalLoop=1;jettySize=auto;html=1;entryX=0.5;entryY=0;entryDx=0;entryDy=0;" edge="1" parent="1" source="YsjO_XKRF-M-CvrAFCbD-26" target="YsjO_XKRF-M-CvrAFCbD-28">
          <mxGeometry relative="1" as="geometry" />
        </mxCell>
        <mxCell id="lzyuPbc2ECaVbri_mAEy-6" value="[Нет]" style="edgeLabel;html=1;align=center;verticalAlign=middle;resizable=0;points=[];" vertex="1" connectable="0" parent="lzyuPbc2ECaVbri_mAEy-5">
          <mxGeometry x="-0.7009" relative="1" as="geometry">
            <mxPoint as="offset" />
          </mxGeometry>
        </mxCell>
        <mxCell id="YsjO_XKRF-M-CvrAFCbD-26" value="" style="shape=rhombus;perimeter=rhombusPerimeter;whiteSpace=wrap;html=1;align=center;" parent="1" vertex="1">
          <mxGeometry x="339" y="480" width="30" height="20" as="geometry" />
        </mxCell>
        <mxCell id="YsjO_XKRF-M-CvrAFCbD-27" style="edgeStyle=orthogonalEdgeStyle;rounded=0;orthogonalLoop=1;jettySize=auto;html=1;exitX=0.5;exitY=1;exitDx=0;exitDy=0;" parent="1" source="YsjO_XKRF-M-CvrAFCbD-28" target="YsjO_XKRF-M-CvrAFCbD-18" edge="1">
          <mxGeometry relative="1" as="geometry" />
        </mxCell>
        <mxCell id="YsjO_XKRF-M-CvrAFCbD-28" value="Забанить стримера" style="rounded=1;whiteSpace=wrap;html=1;arcSize=40;fontColor=#000000;fillColor=#70ff66;strokeColor=#FF0000;" parent="1" vertex="1">
          <mxGeometry x="294" y="820" width="120" height="40" as="geometry" />
        </mxCell>
        <mxCell id="YsjO_XKRF-M-CvrAFCbD-29" style="edgeStyle=orthogonalEdgeStyle;rounded=0;orthogonalLoop=1;jettySize=auto;html=1;exitX=0.5;exitY=1;exitDx=0;exitDy=0;" parent="1" source="YsjO_XKRF-M-CvrAFCbD-5" target="YsjO_XKRF-M-CvrAFCbD-5" edge="1">
          <mxGeometry relative="1" as="geometry" />
        </mxCell>
        <mxCell id="YsjO_XKRF-M-CvrAFCbD-30" style="edgeStyle=orthogonalEdgeStyle;rounded=0;orthogonalLoop=1;jettySize=auto;html=1;exitX=0.5;exitY=1;exitDx=0;exitDy=0;entryX=0.5;entryY=0;entryDx=0;entryDy=0;" parent="1" source="YsjO_XKRF-M-CvrAFCbD-31" edge="1" target="YsjO_XKRF-M-CvrAFCbD-35">
          <mxGeometry relative="1" as="geometry">
            <mxPoint x="540" y="560" as="targetPoint" />
          </mxGeometry>
        </mxCell>
        <mxCell id="YsjO_XKRF-M-CvrAFCbD-31" value="Разблокировать пользователя" style="rounded=1;whiteSpace=wrap;html=1;arcSize=40;fontColor=#000000;fillColor=#70ff66;strokeColor=#FF0000;" parent="1" vertex="1">
          <mxGeometry x="480" y="470" width="120" height="40" as="geometry" />
        </mxCell>
        <mxCell id="YsjO_XKRF-M-CvrAFCbD-35" value="Отправить уведомление о разблокировке" style="rounded=1;whiteSpace=wrap;html=1;arcSize=40;fontColor=#000000;fillColor=#70ff66;strokeColor=#FF0080;" parent="1" vertex="1">
          <mxGeometry x="480" y="650" width="120" height="40" as="geometry" />
        </mxCell>
        <mxCell id="YsjO_XKRF-M-CvrAFCbD-36" style="edgeStyle=orthogonalEdgeStyle;rounded=0;orthogonalLoop=1;jettySize=auto;html=1;exitX=0.5;exitY=1;exitDx=0;exitDy=0;" parent="1" source="YsjO_XKRF-M-CvrAFCbD-37" edge="1">
          <mxGeometry relative="1" as="geometry">
            <mxPoint x="180" y="760" as="targetPoint" />
          </mxGeometry>
        </mxCell>
        <mxCell id="YsjO_XKRF-M-CvrAFCbD-37" value="Получить уведомление о разблокировке" style="rounded=1;whiteSpace=wrap;html=1;arcSize=40;fontColor=#000000;fillColor=#70ff66;strokeColor=#FF0000;" parent="1" vertex="1">
          <mxGeometry x="120" y="650" width="120" height="40" as="geometry" />
        </mxCell>
        <mxCell id="YsjO_XKRF-M-CvrAFCbD-38" style="edgeStyle=orthogonalEdgeStyle;rounded=0;orthogonalLoop=1;jettySize=auto;html=1;exitX=0.5;exitY=1;exitDx=0;exitDy=0;entryX=0;entryY=0.5;entryDx=0;entryDy=0;" parent="1" source="YsjO_XKRF-M-CvrAFCbD-39" target="YsjO_XKRF-M-CvrAFCbD-18" edge="1">
          <mxGeometry relative="1" as="geometry" />
        </mxCell>
        <mxCell id="YsjO_XKRF-M-CvrAFCbD-39" value="Зайти на стрим к исправленному стримеру" style="rounded=1;whiteSpace=wrap;html=1;arcSize=40;fontColor=#000000;fillColor=#70ff66;strokeColor=#FF0000;" parent="1" vertex="1">
          <mxGeometry x="120" y="760" width="120" height="40" as="geometry" />
        </mxCell>
        <mxCell id="YsjO_XKRF-M-CvrAFCbD-40" value="" style="endArrow=none;dashed=1;html=1;dashPattern=1 3;strokeWidth=2;rounded=0;" parent="1" edge="1">
          <mxGeometry width="50" height="50" relative="1" as="geometry">
            <mxPoint x="440" y="1000" as="sourcePoint" />
            <mxPoint x="440" y="40" as="targetPoint" />
          </mxGeometry>
        </mxCell>
        <mxCell id="YsjO_XKRF-M-CvrAFCbD-41" value="" style="endArrow=none;dashed=1;html=1;dashPattern=1 3;strokeWidth=2;rounded=0;" parent="1" edge="1">
          <mxGeometry width="50" height="50" relative="1" as="geometry">
            <mxPoint x="270" y="1000" as="sourcePoint" />
            <mxPoint x="270" y="40" as="targetPoint" />
          </mxGeometry>
        </mxCell>
        <mxCell id="YsjO_XKRF-M-CvrAFCbD-42" value="" style="endArrow=none;dashed=1;html=1;dashPattern=1 3;strokeWidth=2;rounded=0;" parent="1" edge="1">
          <mxGeometry width="50" height="50" relative="1" as="geometry">
            <mxPoint x="90" y="1000" as="sourcePoint" />
            <mxPoint x="90" y="40" as="targetPoint" />
          </mxGeometry>
        </mxCell>
        <mxCell id="lzyuPbc2ECaVbri_mAEy-7" value="" style="edgeStyle=orthogonalEdgeStyle;rounded=0;orthogonalLoop=1;jettySize=auto;html=1;exitX=0;exitY=0.5;exitDx=0;exitDy=0;entryX=1;entryY=0.5;entryDx=0;entryDy=0;" edge="1" parent="1" source="YsjO_XKRF-M-CvrAFCbD-35" target="YsjO_XKRF-M-CvrAFCbD-37">
          <mxGeometry relative="1" as="geometry">
            <mxPoint x="414" y="670" as="targetPoint" />
            <mxPoint x="480" y="670" as="sourcePoint" />
          </mxGeometry>
        </mxCell>
      </root>
    </mxGraphModel>
  </diagram>
</mxfile>
